Mutua-Regular.ufo
<glyph name="quotesingle" format="2">
	<advance width="220"/>
	<unicode hex="0027"/>
	<outline>
		<contour>
			<point x="55" y="453" type="line"/>
			<point x="167" y="452" type="line"/>
			<point x="176" y="699" type="line"/>
			<point x="46" y="699" type="line"/>
		</contour>
	</outline>
</glyph>
<glyph name="parenright" format="2">
	<advance width="410"/>
	<unicode hex="0029"/>
	<guideline x="236" y="144" angle="90"/>
	<outline>
		<contour>
			<point x="103" y="-36" type="curve" smooth="yes"/>
			<point x="60" y="-36" type="line"/>
			<point x="60" y="-147" type="line"/>
			<point x="101" y="-147" type="line" smooth="yes"/>
			<point x="259" y="-147"/>
			<point x="310" y="-70"/>
			<point x="310" y="84" type="curve"/>
			<point x="310" y="558" type="line" smooth="yes"/>
			<point x="310" y="705"/>
			<point x="238" y="788"/>
			<point x="101" y="788" type="curve" smooth="yes"/>
			<point x="60" y="788" type="line"/>
			<point x="60" y="677" type="line"/>
			<point x="103" y="677" type="line" smooth="yes"/>
			<point x="149" y="677"/>
			<point x="179" y="638"/>
			<point x="179" y="593" type="curve" smooth="yes"/>
			<point x="179" y="28" type="line" smooth="yes"/>
			<point x="179" y="-11"/>
			<point x="149" y="-36"/>
		</contour>
	</outline>
</glyph>
<glyph name="hyphen" format="2">
	<advance width="428"/>
	<unicode hex="002D"/>
	<guideline x="370" y="49" angle="90"/>
	<outline>
		<contour>
			<point x="58" y="221" type="line"/>
			<point x="370" y="221" type="line"/>
			<point x="370" y="350" type="line"/>
			<point x="58" y="350" type="line"/>
		</contour>
		<contour>
			<point x="58" y="221" type="line"/>
			<point x="187" y="221" type="line"/>
			<point x="187" y="350" type="line"/>
			<point x="58" y="350" type="line"/>
		</contour>
	</outline>
</glyph>
<glyph name="slash" format="2">
	<advance width="476"/>
	<unicode hex="002F"/>
	<outline>
		<contour>
			<point x="273" y="756" type="line"/>
			<point x="41" y="-148" type="line"/>
			<point x="167" y="-148" type="line"/>
			<point x="399" y="756" type="line"/>
		</contour>
	</outline>
</glyph>
<glyph name="zero" format="2">
	<advance width="720"/>
	<unicode hex="0030"/>
	<outline>
		<contour>
			<point x="662" y="228" type="curve" smooth="yes"/>
			<point x="662" y="528" type="line"/>
			<point x="662" y="675"/>
			<point x="598" y="758"/>
			<point x="462" y="758" type="curve" smooth="yes"/>
			<point x="259" y="758" type="line" smooth="yes"/>
			<point x="123" y="758"/>
			<point x="58" y="675"/>
			<point x="58" y="528" type="curve" smooth="yes"/>
			<point x="58" y="228" type="line" smooth="yes"/>
			<point x="58" y="81"/>
			<point x="123" y="-2"/>
			<point x="259" y="-2" type="curve" smooth="yes"/>
			<point x="461" y="-2" type="line" smooth="yes"/>
			<point x="598" y="-2"/>
			<point x="662" y="81"/>
		</contour>
		<contour>
			<point x="423" y="122" type="curve" smooth="yes"/>
			<point x="307" y="122" type="line"/>
			<point x="213" y="122"/>
			<point x="178" y="159"/>
			<point x="178" y="249" type="curve" smooth="yes"/>
			<point x="178" y="507" type="line" smooth="yes"/>
			<point x="178" y="597"/>
			<point x="213" y="634"/>
			<point x="307" y="634" type="curve" smooth="yes"/>
			<point x="423" y="634" type="line" smooth="yes"/>
			<point x="507" y="634"/>
			<point x="542" y="597"/>
			<point x="542" y="507" type="curve" smooth="yes"/>
			<point x="542" y="249" type="line" smooth="yes"/>
			<point x="542" y="159"/>
			<point x="507" y="122"/>
		</contour>
		<contour>
			<point x="492" y="643" type="line"/>
			<point x="139" y="160" type="line"/>
			<point x="230" y="92" type="line"/>
			<point x="583" y="576" type="line"/>
		</contour>
	</outline>
</glyph>
<glyph name="four" format="2">
	<advance width="720"/>
	<unicode hex="0034"/>
	<outline>
		<contour>
			<point x="569" y="762" type="line"/>
			<point x="347" y="762" type="line"/>
			<point x="43" y="309" type="line"/>
			<point x="43" y="169" type="line"/>
			<point x="444" y="169" type="line"/>
			<point x="444" y="6" type="line"/>
			<point x="569" y="6" type="line"/>
			<point x="569" y="169" type="line"/>
			<point x="668" y="169" type="line"/>
			<point x="668" y="289" type="line"/>
			<point x="569" y="289" type="line"/>
		</contour>
		<contour>
			<point x="165" y="289" type="line"/>
			<point x="427" y="679" type="line"/>
			<point x="444" y="679" type="line"/>
			<point x="444" y="289" type="line"/>
		</contour>
	</outline>
</glyph>
<glyph name="five" format="2">
	<advance width="720"/>
	<unicode hex="0035"/>
	<guideline x="592" y="629" angle="0"/>
	<outline>
		<contour>
			<point x="91" y="346" type="line"/>
			<point x="418" y="347" type="line" smooth="yes"/>
			<point x="483" y="347"/>
			<point x="504" y="330"/>
			<point x="504" y="262" type="curve" smooth="yes"/>
			<point x="504" y="231" type="line" smooth="yes"/>
			<point x="504" y="148"/>
			<point x="483" y="126"/>
			<point x="408" y="126" type="curve" smooth="yes"/>
			<point x="87" y="126" type="line"/>
			<point x="87" y="0" type="line"/>
			<point x="383" y="0" type="line" smooth="yes"/>
			<point x="578" y="0"/>
			<point x="631" y="59"/>
			<point x="631" y="229" type="curve" smooth="yes"/>
			<point x="631" y="292" type="line" smooth="yes"/>
			<point x="631" y="409"/>
			<point x="568" y="472"/>
			<point x="440" y="472" type="curve" smooth="yes"/>
			<point x="377" y="472" type="line" smooth="yes"/>
			<point x="307" y="472"/>
			<point x="266" y="447"/>
			<point x="234" y="400" type="curve"/>
			<point x="219" y="400" type="line"/>
			<point x="219" y="674" type="line"/>
			<point x="184" y="630" type="line"/>
			<point x="587" y="630" type="line"/>
			<point x="587" y="756" type="line"/>
			<point x="91" y="756" type="line"/>
		</contour>
	</outline>
</glyph>
<glyph name="A" format="2">
	<advance width="749"/>
	<unicode hex="0041"/>
	<anchor x="377" y="756" name="top"/>
	<anchor x="375" y="0" name="bottom"/>
	<anchor x="666" y="10" name="ogonek"/>
	<outline>
		<contour>
			<point x="27" y="0" type="line"/>
			<point x="163" y="0" type="line"/>
			<point x="373" y="673" type="line"/>
			<point x="316" y="630" type="line"/>
			<point x="433" y="630" type="line"/>
			<point x="373" y="673" type="line"/>
			<point x="581" y="0" type="line"/>
			<point x="722" y="0" type="line"/>
			<point x="480" y="756" type="line"/>
			<point x="274" y="756" type="line"/>
		</contour>
		<contour>
			<point x="202" y="315" type="line"/>
			<point x="202" y="191" type="line"/>
			<point x="539" y="191" type="line"/>
			<point x="539" y="315" type="line"/>
		</contour>
	</outline>
</glyph>
<glyph name="B" format="2">
	<advance width="792"/>
	<unicode hex="0042"/>
	<guideline x="-253" y="0" angle="0"/>
	<outline>
		<contour>
			<point x="561" y="388" type="curve"/>
			<point x="561" y="410" type="line"/>
			<point x="646" y="410"/>
			<point x="683" y="467"/>
			<point x="683" y="571" type="curve" smooth="yes"/>
			<point x="683" y="678"/>
			<point x="633" y="756"/>
			<point x="494" y="756" type="curve" smooth="yes"/>
			<point x="197" y="756" type="line"/>
			<point x="197" y="629" type="line"/>
			<point x="459" y="629" type="line"/>
			<point x="522" y="629"/>
			<point x="561" y="606"/>
			<point x="561" y="540" type="curve" smooth="yes"/>
			<point x="561" y="474"/>
			<point x="514" y="451"/>
			<point x="463" y="451" type="curve"/>
			<point x="163" y="451" type="line"/>
			<point x="163" y="330" type="line"/>
			<point x="486" y="330" type="line"/>
			<point x="562" y="329"/>
			<point x="585" y="287"/>
			<point x="585" y="229" type="curve" smooth="yes"/>
			<point x="585" y="153"/>
			<point x="548" y="128"/>
			<point x="484" y="128" type="curve" smooth="yes"/>
			<point x="185" y="128" type="line"/>
			<point x="186" y="0" type="line"/>
			<point x="494" y="0" type="line" smooth="yes"/>
			<point x="630" y="0"/>
			<point x="710" y="48"/>
			<point x="710" y="205" type="curve" smooth="yes"/>
			<point x="710" y="324"/>
			<point x="664" y="388"/>
		</contour>
		<contour>
			<point x="241" y="0" type="line"/>
			<point x="241" y="756" type="line"/>
			<point x="114" y="756" type="line"/>
			<point x="114" y="0" type="line"/>
		</contour>
	</outline>
</glyph>
<glyph name="D" format="2">
	<advance width="817"/>
	<unicode hex="0044"/>
	<outline>
		<contour>
			<point x="114" y="3" type="line"/>
			<point x="523" y="3" type="line" smooth="yes"/>
			<point x="663" y="3"/>
			<point x="725" y="76"/>
			<point x="725" y="234" type="curve" smooth="yes"/>
			<point x="725" y="528" type="line" smooth="yes"/>
			<point x="725" y="686"/>
			<point x="663" y="759"/>
			<point x="523" y="759" type="curve" smooth="yes"/>
			<point x="114" y="759" type="line"/>
		</contour>
		<contour>
			<point x="476" y="629" type="line"/>
			<point x="560" y="629"/>
			<point x="597" y="592"/>
			<point x="597" y="520" type="curve" smooth="yes"/>
			<point x="597" y="242" type="line" smooth="yes"/>
			<point x="597" y="164"/>
			<point x="560" y="133"/>
			<point x="476" y="133" type="curve" smooth="yes"/>
			<point x="242" y="133" type="line"/>
			<point x="242" y="629" type="line"/>
		</contour>
	</outline>
</glyph>
<glyph name="G" format="2">
	<advance width="800"/>
	<unicode hex="0047"/>
	<guideline x="-450" y="0" angle="0"/>
	<outline>
		<contour>
			<point x="589" y="229" type="line"/>
			<point x="589" y="141"/>
			<point x="548" y="127"/>
			<point x="477" y="127" type="curve"/>
			<point x="344" y="127" type="line" smooth="yes"/>
			<point x="269" y="127"/>
			<point x="228" y="147"/>
			<point x="228" y="247" type="curve"/>
			<point x="228" y="507" type="line" smooth="yes"/>
			<point x="228" y="607"/>
			<point x="268" y="629"/>
			<point x="343" y="629" type="curve" smooth="yes"/>
			<point x="687" y="629" type="line"/>
			<point x="687" y="756" type="line"/>
			<point x="295" y="756" type="line" smooth="yes"/>
			<point x="185" y="756"/>
			<point x="92" y="663"/>
			<point x="92" y="528" type="curve"/>
			<point x="92" y="230" type="line"/>
			<point x="92" y="71"/>
			<point x="159" y="0"/>
			<point x="295" y="0" type="curve" smooth="yes"/>
			<point x="423" y="0" type="line" smooth="yes"/>
			<point x="531" y="0"/>
			<point x="586" y="39"/>
			<point x="597" y="124" type="curve"/>
			<point x="615" y="124" type="line"/>
			<point x="614" y="0" type="line"/>
			<point x="719" y="0" type="line"/>
			<point x="719" y="429" type="line"/>
			<point x="424" y="429" type="line"/>
			<point x="424" y="309" type="line"/>
			<point x="589" y="309" type="line"/>
		</contour>
	</outline>
</glyph>
<glyph name="H" format="2">
	<advance width="839"/>
	<unicode hex="0048"/>
	<outline>
		<contour>
			<point x="242" y="756" type="line"/>
			<point x="114" y="756" type="line"/>
			<point x="114" y="0" type="line"/>
			<point x="242" y="0" type="line"/>
		</contour>
		<contour>
			<point x="725" y="756" type="line"/>
			<point x="597" y="756" type="line"/>
			<point x="597" y="0" type="line"/>
			<point x="725" y="0" type="line"/>
		</contour>
		<contour>
			<point x="198" y="448" type="line"/>
			<point x="198" y="322" type="line"/>
			<point x="636" y="322" type="line"/>
			<point x="636" y="448" type="line"/>
		</contour>
	</outline>
</glyph>
<glyph name="L" format="2">
	<advance width="609"/>
	<unicode hex="004C"/>
	<outline>
		<contour>
			<point x="114" y="0" type="line"/>
			<point x="587" y="0" type="line"/>
			<point x="587" y="127" type="line"/>
			<point x="204" y="127" type="line"/>
			<point x="248" y="82" type="line"/>
			<point x="248" y="756" type="line"/>
			<point x="114" y="756" type="line"/>
		</contour>
	</outline>
</glyph>
<glyph name="P" format="2">
	<advance width="726"/>
	<unicode hex="0050"/>
	<outline>
		<contour>
			<point x="242" y="0" type="line"/>
			<point x="242" y="629" type="line"/>
			<point x="448" y="629" type="line" smooth="yes"/>
			<point x="523" y="629"/>
			<point x="549" y="594"/>
			<point x="549" y="512" type="curve" smooth="yes"/>
			<point x="549" y="423"/>
			<point x="519" y="381"/>
			<point x="448" y="381" type="curve" smooth="yes"/>
			<point x="230" y="381" type="line"/>
			<point x="230" y="255" type="line"/>
			<point x="464" y="255" type="line" smooth="yes"/>
			<point x="611" y="255"/>
			<point x="675" y="312"/>
			<point x="675" y="455" type="curve" smooth="yes"/>
			<point x="675" y="583" type="line" smooth="yes"/>
			<point x="675" y="703"/>
			<point x="614" y="756"/>
			<point x="464" y="756" type="curve" smooth="yes"/>
			<point x="114" y="756" type="line"/>
			<point x="114" y="0" type="line"/>
		</contour>
	</outline>
</glyph>
<glyph name="b" format="2">
	<advance width="679"/>
	<unicode hex="0062"/>
	<guideline x="-469" y="0" angle="0"/>
	<outline>
		<contour>
			<point x="402" y="117" type="curve" smooth="yes"/>
			<point x="180" y="117" type="line"/>
			<point x="180" y="1" type="line"/>
			<point x="410" y="0" type="line" smooth="yes"/>
			<point x="568" y="-1"/>
			<point x="604" y="79"/>
			<point x="604" y="245" type="curve" smooth="yes"/>
			<point x="604" y="371" type="line" smooth="yes"/>
			<point x="604" y="516"/>
			<point x="555" y="560"/>
			<point x="444" y="560" type="curve" smooth="yes"/>
			<point x="383" y="560" type="line" smooth="yes"/>
			<point x="303" y="560"/>
			<point x="242" y="521"/>
			<point x="228" y="429" type="curve"/>
			<point x="178" y="429" type="line"/>
			<point x="224" y="340" type="line"/>
			<point x="224" y="396"/>
			<point x="261" y="437"/>
			<point x="315" y="437" type="curve" smooth="yes"/>
			<point x="403" y="437" type="line" smooth="yes"/>
			<point x="468" y="437"/>
			<point x="484" y="413"/>
			<point x="484" y="354" type="curve" smooth="yes"/>
			<point x="484" y="193" type="line" smooth="yes"/>
			<point x="484" y="134"/>
			<point x="464" y="117"/>
		</contour>
		<contour>
			<point x="97" y="778" type="line"/>
			<point x="97" y="1" type="line"/>
			<point x="224" y="1" type="line"/>
			<point x="224" y="355" type="line"/>
			<point x="211" y="433" type="line"/>
			<point x="211" y="778" type="line"/>
		</contour>
	</outline>
</glyph>
<glyph name="c" format="2">
	<advance width="587"/>
	<unicode hex="0063"/>
	<outline>
		<contour>
			<point x="304" y="119" type="curve" smooth="yes"/>
			<point x="528" y="119" type="line"/>
			<point x="528" y="-3" type="line"/>
			<point x="271" y="-3" type="line" smooth="yes"/>
			<point x="144" y="-3"/>
			<point x="68" y="86"/>
			<point x="68" y="226" type="curve" smooth="yes"/>
			<point x="68" y="333" type="line" smooth="yes"/>
			<point x="68" y="475"/>
			<point x="158" y="559"/>
			<point x="300" y="559" type="curve" smooth="yes"/>
			<point x="529" y="559" type="line"/>
			<point x="529" y="435" type="line"/>
			<point x="304" y="435" type="line" smooth="yes"/>
			<point x="230" y="435"/>
			<point x="197" y="405"/>
			<point x="197" y="340" type="curve" smooth="yes"/>
			<point x="197" y="221" type="line" smooth="yes"/>
			<point x="197" y="149"/>
			<point x="230" y="119"/>
		</contour>
	</outline>
</glyph>
<glyph name="m" format="2">
	<advance width="1011"/>
	<unicode hex="006D"/>
	<outline>
		<contour>
			<point x="90" y="556" type="line"/>
			<point x="90" y="0" type="line"/>
			<point x="216" y="0" type="line"/>
			<point x="216" y="329" type="line"/>
			<point x="200" y="432" type="line"/>
			<point x="200" y="556" type="line"/>
		</contour>
		<contour>
			<point x="347" y="436" type="curve" smooth="yes"/>
			<point x="419" y="436"/>
			<point x="451" y="403"/>
			<point x="451" y="329" type="curve" smooth="yes"/>
			<point x="451" y="0" type="line"/>
			<point x="574" y="0" type="line"/>
			<point x="574" y="380" type="line" smooth="yes"/>
			<point x="574" y="498"/>
			<point x="540" y="559"/>
			<point x="419" y="559" type="curve" smooth="yes"/>
			<point x="377" y="559" type="line" smooth="yes"/>
			<point x="276" y="559"/>
			<point x="236" y="507"/>
			<point x="216" y="432" type="curve"/>
			<point x="200" y="432" type="line"/>
			<point x="216" y="329" type="line"/>
			<point x="216" y="419"/>
			<point x="263" y="436"/>
		</contour>
		<contour>
			<point x="706" y="436" type="curve" smooth="yes"/>
			<point x="777" y="436"/>
			<point x="808" y="403"/>
			<point x="808" y="329" type="curve"/>
			<point x="808" y="0" type="line"/>
			<point x="931" y="0" type="line"/>
			<point x="931" y="380" type="line" smooth="yes"/>
			<point x="931" y="498"/>
			<point x="897" y="559"/>
			<point x="776" y="559" type="curve" smooth="yes"/>
			<point x="736" y="559" type="line" smooth="yes"/>
			<point x="635" y="559"/>
			<point x="595" y="507"/>
			<point x="575" y="432" type="curve"/>
			<point x="550" y="432" type="line"/>
			<point x="574" y="329" type="line"/>
			<point x="574" y="419"/>
			<point x="622" y="436"/>
		</contour>
	</outline>
</glyph>
<glyph name="n" format="2">
	<advance width="674"/>
	<unicode hex="006E"/>
	<anchor x="396" y="556" name="top"/>
	<anchor x="373" y="0" name="bottom"/>
	<anchor x="384" y="560" name="top_"/>
	<outline>
		<contour>
			<point x="90" y="556" type="line"/>
			<point x="90" y="0" type="line"/>
			<point x="215" y="0" type="line"/>
			<point x="215" y="333" type="line"/>
			<point x="199" y="432" type="line"/>
			<point x="199" y="556" type="line"/>
		</contour>
		<contour>
			<point x="367" y="436" type="curve" smooth="yes"/>
			<point x="437" y="436"/>
			<point x="471" y="402"/>
			<point x="471" y="323" type="curve" smooth="yes"/>
			<point x="471" y="0" type="line"/>
			<point x="594" y="0" type="line"/>
			<point x="594" y="380" type="line" smooth="yes"/>
			<point x="594" y="498"/>
			<point x="536" y="559"/>
			<point x="415" y="559" type="curve" smooth="yes"/>
			<point x="373" y="559" type="line" smooth="yes"/>
			<point x="272" y="559"/>
			<point x="236" y="507"/>
			<point x="216" y="432" type="curve"/>
			<point x="199" y="432" type="line"/>
			<point x="215" y="333" type="line"/>
			<point x="215" y="423"/>
			<point x="283" y="436"/>
		</contour>
	</outline>
</glyph>
<glyph name="q" format="2">
	<advance width="672"/>
	<unicode hex="0071"/>
	<guideline x="-2907" y="0" angle="0"/>
	<guideline x="32" y="354" angle="0"/>
	<outline>
		<contour>
			<point x="582" y="556" type="line"/>
			<point x="452" y="556" type="line"/>
			<point x="452" y="186" type="line"/>
			<point x="463" y="129" type="line"/>
			<point x="463" y="-210" type="line"/>
			<point x="582" y="-210" type="line"/>
		</contour>
		<contour>
			<point x="197" y="352" type="curve"/>
			<point x="197" y="412"/>
			<point x="228" y="437"/>
			<point x="292" y="437" type="curve"/>
			<point x="464" y="437" type="line"/>
			<point x="495" y="556" type="line"/>
			<point x="495" y="556"/>
			<point x="404" y="556"/>
			<point x="267" y="556" type="curve" smooth="yes"/>
			<point x="126" y="556"/>
			<point x="74" y="481"/>
			<point x="74" y="374" type="curve" smooth="yes"/>
			<point x="74" y="175" type="line" smooth="yes"/>
			<point x="74" y="50"/>
			<point x="143" y="-6"/>
			<point x="257" y="-4" type="curve"/>
			<point x="299" y="-4" type="line"/>
			<point x="389" y="-4"/>
			<point x="424" y="48"/>
			<point x="447" y="123" type="curve"/>
			<point x="482" y="123" type="line"/>
			<point x="452" y="222" type="line"/>
			<point x="452" y="132"/>
			<point x="407" y="120"/>
			<point x="339" y="120" type="curve" smooth="yes"/>
			<point x="292" y="120" type="line" smooth="yes"/>
			<point x="228" y="120"/>
			<point x="197" y="139"/>
			<point x="197" y="200" type="curve" smooth="yes"/>
			<point x="197" y="221"/>
			<point x="197" y="351"/>
		</contour>
	</outline>
</glyph>
<glyph name="s" format="2">
	<advance width="587"/>
	<unicode hex="0073"/>
	<outline>
		<contour>
			<point x="59" y="429" type="curve" smooth="yes"/>
			<point x="59" y="392" type="line" smooth="yes"/>
			<point x="59" y="280"/>
			<point x="115" y="257"/>
			<point x="189" y="244" type="curve" smooth="yes"/>
			<point x="352" y="216" type="line" smooth="yes"/>
			<point x="409" y="206"/>
			<point x="418" y="195"/>
			<point x="418" y="163" type="curve" smooth="yes"/>
			<point x="418" y="131"/>
			<point x="406" y="120"/>
			<point x="349" y="120" type="curve" smooth="yes"/>
			<point x="80" y="120" type="line"/>
			<point x="80" y="0" type="line"/>
			<point x="364" y="0" type="line" smooth="yes"/>
			<point x="470" y="0"/>
			<point x="526" y="53"/>
			<point x="526" y="157" type="curve" smooth="yes"/>
			<point x="526" y="194" type="line" smooth="yes"/>
			<point x="526" y="288"/>
			<point x="470" y="314"/>
			<point x="404" y="324" type="curve" smooth="yes"/>
			<point x="226" y="352" type="line" smooth="yes"/>
			<point x="174" y="360"/>
			<point x="167" y="376"/>
			<point x="167" y="400" type="curve" smooth="yes"/>
			<point x="167" y="425"/>
			<point x="179" y="436"/>
			<point x="224" y="436" type="curve" smooth="yes"/>
			<point x="492" y="436" type="line"/>
			<point x="492" y="556" type="line"/>
			<point x="219" y="556" type="line" smooth="yes"/>
			<point x="115" y="556"/>
			<point x="59" y="500"/>
		</contour>
	</outline>
</glyph>
<glyph name="t" format="2">
	<advance width="463"/>
	<unicode hex="0074"/>
	<outline>
		<contour>
			<point x="40" y="556" type="line"/>
			<point x="40" y="436" type="line"/>
			<point x="417" y="436" type="line"/>
			<point x="417" y="556" type="line"/>
		</contour>
		<contour>
			<point x="132" y="674" type="line"/>
			<point x="132" y="136" type="line" smooth="yes"/>
			<point x="132" y="42"/>
			<point x="178" y="-4"/>
			<point x="271" y="-4" type="curve" smooth="yes"/>
			<point x="406" y="-4" type="line"/>
			<point x="406" y="115" type="line"/>
			<point x="317" y="115" type="line" smooth="yes"/>
			<point x="277" y="115"/>
			<point x="256" y="136"/>
			<point x="256" y="180" type="curve" smooth="yes"/>
			<point x="256" y="674" type="line"/>
		</contour>
	</outline>
</glyph>
<glyph name="u" format="2">
	<advance width="659"/>
	<unicode hex="0075"/>
	<anchor x="593" y="10" name="ogonek"/>
	<anchor x="325" y="556" name="top"/>
	<anchor x="639" y="556" name="topright"/>
	<anchor x="330" y="0" name="bottom"/>
	<outline>
		<contour>
			<point x="569" y="0" type="line"/>
			<point x="569" y="559" type="line"/>
			<point x="446" y="559" type="line"/>
			<point x="446" y="197" type="line"/>
			<point x="460" y="127" type="line"/>
			<point x="465" y="0" type="line"/>
		</contour>
		<contour>
			<point x="203" y="238" type="curve"/>
			<point x="203" y="559" type="line"/>
			<point x="80" y="559" type="line"/>
			<point x="80" y="179" type="line" smooth="yes"/>
			<point x="80" y="65"/>
			<point x="135" y="0"/>
			<point x="237" y="0" type="curve" smooth="yes"/>
			<point x="286" y="0" type="line" smooth="yes"/>
			<point x="387" y="0"/>
			<point x="423" y="52"/>
			<point x="443" y="127" type="curve"/>
			<point x="460" y="127" type="line"/>
			<point x="446" y="238" type="line"/>
			<point x="446" y="157"/>
			<point x="391" y="127"/>
			<point x="312" y="127" type="curve" smooth="yes"/>
			<point x="236" y="127"/>
			<point x="203" y="157"/>
		</contour>
	</outline>
</glyph>
<glyph name="v" format="2">
	<advance width="637"/>
	<unicode hex="0076"/>
	<outline>
		<contour>
			<point x="36" y="556" type="line"/>
			<point x="221" y="0" type="line"/>
			<point x="413" y="0" type="line"/>
			<point x="601" y="556" type="line"/>
			<point x="470" y="556" type="line"/>
			<point x="336" y="119" type="line"/>
			<point x="309" y="119" type="line"/>
			<point x="170" y="556" type="line"/>
		</contour>
	</outline>
</glyph>
<glyph name="y" format="2">
	<advance width="632"/>
	<unicode hex="0079"/>
	<outline>
		<contour>
			<point x="36" y="556" type="line"/>
			<point x="228" y="0" type="line"/>
			<point x="342" y="0" type="line"/>
			<point x="342" y="134" type="line"/>
			<point x="306" y="134" type="line"/>
			<point x="167" y="556" type="line"/>
		</contour>
		<contour>
			<point x="411" y="-28" type="curve" smooth="yes"/>
			<point x="596" y="556" type="line"/>
			<point x="463" y="556" type="line"/>
			<point x="291" y="-39" type="line" smooth="yes"/>
			<point x="279" y="-79"/>
			<point x="255" y="-97"/>
			<point x="216" y="-97" type="curve"/>
			<point x="111" y="-97" type="line"/>
			<point x="111" y="-210" type="line"/>
			<point x="216" y="-210" type="line" smooth="yes"/>
			<point x="320" y="-210"/>
			<point x="369" y="-165"/>
		</contour>
	</outline>
</glyph>
<glyph name="braceright" format="2">
	<advance width="486"/>
	<unicode hex="007D"/>
	<guideline x="418" y="190" angle="90"/>
	<guideline x="453" y="275" angle="0"/>
	<outline>
		<contour>
			<point x="75" y="663" type="line"/>
			<point x="118" y="663" type="line" smooth="yes"/>
			<point x="174" y="663"/>
			<point x="198" y="632"/>
			<point x="199" y="553" type="curve" smooth="yes"/>
			<point x="200" y="402" type="line" smooth="yes"/>
			<point x="200" y="363"/>
			<point x="220" y="327"/>
			<point x="266" y="327" type="curve" smooth="yes"/>
			<point x="294" y="327" type="line"/>
			<point x="294" y="291" type="line"/>
			<point x="266" y="291" type="line" smooth="yes"/>
			<point x="220" y="291"/>
			<point x="200" y="238"/>
			<point x="200" y="215" type="curve" smooth="yes"/>
			<point x="201" y="47" type="line" smooth="yes"/>
			<point x="201" y="-4"/>
			<point x="183" y="-30"/>
			<point x="138" y="-30" type="curve" smooth="yes"/>
			<point x="102" y="-30" type="line"/>
			<point x="102" y="-145" type="line"/>
			<point x="167" y="-145" type="line" smooth="yes"/>
			<point x="275" y="-145"/>
			<point x="324" y="-99"/>
			<point x="324" y="47" type="curve" smooth="yes"/>
			<point x="324" y="236" type="line"/>
			<point x="396" y="252" type="line"/>
			<point x="396" y="366" type="line"/>
			<point x="324" y="381" type="line"/>
			<point x="323" y="576" type="line" smooth="yes"/>
			<point x="322" y="733"/>
			<point x="274" y="778"/>
			<point x="166" y="778" type="curve" smooth="yes"/>
			<point x="75" y="778" type="line"/>
		</contour>
	</outline>
</glyph>
<glyph name="periodcentered" format="2">
	<advance width="257"/>
	<unicode hex="00B7"/>
	<outline>
		<contour>
			<point x="44" y="280" type="line"/>
			<point x="213" y="280" type="line"/>
			<point x="213" y="449" type="line"/>
			<point x="44" y="449" type="line"/>
		</contour>
	</outline>
</glyph>
<glyph name="guillemotright" format="2">
	<advance width="477"/>
	<unicode hex="00BB"/>
	<outline>
		<contour>
			<point x="427" y="183" type="line"/>
			<point x="427" y="355" type="line"/>
			<point x="254" y="475" type="line"/>
			<point x="254" y="335" type="line"/>
			<point x="334" y="279" type="line"/>
			<point x="334" y="259" type="line"/>
			<point x="254" y="203" type="line"/>
			<point x="254" y="63" type="line"/>
		</contour>
		<contour>
			<point x="223" y="183" type="line"/>
			<point x="223" y="355" type="line"/>
			<point x="50" y="475" type="line"/>
			<point x="50" y="335" type="line"/>
			<point x="130" y="279" type="line"/>
			<point x="130" y="259" type="line"/>
			<point x="50" y="203" type="line"/>
			<point x="50" y="63" type="line"/>
		</contour>
	</outline>
</glyph>
<glyph name="questiondown" format="2">
	<advance width="570"/>
	<unicode hex="00BF"/>
	<guideline x="571" y="-175" angle="0"/>
	<outline>
		<contour>
			<point x="199" y="77" type="curve" smooth="yes"/>
			<point x="355" y="77" type="line"/>
			<point x="425" y="77"/>
			<point x="461" y="106"/>
			<point x="461" y="173" type="curve" smooth="yes"/>
			<point x="461" y="205"/>
			<point x="461" y="302"/>
			<point x="461" y="325" type="curve"/>
			<point x="339" y="325" type="line"/>
			<point x="339" y="285"/>
			<point x="339" y="258"/>
			<point x="339" y="233" type="curve" smooth="yes"/>
			<point x="339" y="208"/>
			<point x="327" y="197"/>
			<point x="299" y="197" type="curve" smooth="yes"/>
			<point x="149" y="196" type="line" smooth="yes"/>
			<point x="73" y="195"/>
			<point x="40" y="156"/>
			<point x="40" y="86" type="curve" smooth="yes"/>
			<point x="40" y="-66" type="line" smooth="yes"/>
			<point x="40" y="-142"/>
			<point x="53" y="-175"/>
			<point x="129" y="-175" type="curve" smooth="yes"/>
			<point x="463" y="-175" type="line"/>
			<point x="463" y="-50" type="line"/>
			<point x="199" y="-50" type="line" smooth="yes"/>
			<point x="172" y="-50"/>
			<point x="160" y="-32"/>
			<point x="160" y="-12" type="curve" smooth="yes"/>
			<point x="160" y="8"/>
			<point x="160" y="26"/>
			<point x="160" y="34" type="curve" smooth="yes"/>
			<point x="160" y="64"/>
			<point x="172" y="77"/>
		</contour>
		<contour>
			<point x="463" y="529" type="line"/>
			<point x="334" y="529" type="line"/>
			<point x="334" y="400" type="line"/>
			<point x="463" y="400" type="line"/>
		</contour>
	</outline>
</glyph>
<glyph name="acutecomb" format="2">
	<advance width="0"/>
	<unicode hex="0301"/>
	<anchor x="0" y="556" name="_top"/>
	<outline>
		<contour>
			<point x="-165" y="735" type="line"/>
			<point x="-138" y="639" type="line"/>
			<point x="185" y="721" type="line"/>
			<point x="149" y="839" type="line"/>
		</contour>
	</outline>
</glyph>
<glyph name="tildecomb" format="2">
	<advance width="0"/>
	<unicode hex="0303"/>
	<anchor x="-271" y="826" name="top"/>
	<anchor x="316" y="556" name="_top"/>
	<outline>
		<contour>
			<point x="-483" y="692" type="curve" smooth="yes"/>
			<point x="-483" y="641" type="line"/>
			<point x="-396" y="641" type="line"/>
			<point x="-396" y="688" type="line" smooth="yes"/>
			<point x="-396" y="711"/>
			<point x="-385" y="725"/>
			<point x="-357" y="725" type="curve" smooth="yes"/>
			<point x="-313" y="725"/>
			<point x="-241" y="647"/>
			<point x="-166" y="647" type="curve" smooth="yes"/>
			<point x="-90" y="647"/>
			<point x="-57" y="672"/>
			<point x="-57" y="754" type="curve" smooth="yes"/>
			<point x="-57" y="817" type="line"/>
			<point x="-144" y="817" type="line"/>
			<point x="-144" y="788" type="line" smooth="yes"/>
			<point x="-144" y="759"/>
			<point x="-153" y="747"/>
			<point x="-178" y="747" type="curve" smooth="yes"/>
			<point x="-224" y="747"/>
			<point x="-295" y="825"/>
			<point x="-370" y="825" type="curve" smooth="yes"/>
			<point x="-449" y="825"/>
			<point x="-483" y="788"/>
		</contour>
	</outline>
</glyph>
<glyph name="quoteright" format="2">
	<advance width="256"/>
	<unicode hex="2019"/>
	<outline>
		<contour>
			<point x="159" y="450" type="line"/>
			<point x="216" y="698" type="line"/>
			<point x="86" y="698" type="line"/>
			<point x="50" y="449" type="line"/>
		</contour>
	</outline>
</glyph>
<glyph name="bullet" format="2">
	<advance width="342"/>
	<unicode hex="2022"/>
	<outline>
		<contour>
			<point x="60" y="248" type="line"/>
			<point x="282" y="248" type="line"/>
			<point x="282" y="470" type="line"/>
			<point x="60" y="470" type="line"/>
		</contour>
	</outline>
</glyph>
<glyph name="leftRightArrow" format="2">
	<advance width="856"/>
	<unicode hex="2194"/>
	<outline>
		<contour>
			<point x="276" y="65" type="line"/>
			<point x="353" y="143" type="line"/>
			<point x="131" y="370" type="line"/>
			<point x="192" y="291" type="line"/>
			<point x="192" y="341" type="line"/>
			<point x="93" y="313" type="line"/>
			<point x="663" y="313" type="line"/>
			<point x="663" y="427" type="line"/>
			<point x="93" y="427" type="line"/>
			<point x="192" y="394" type="line"/>
			<point x="192" y="453" type="line"/>
			<point x="132" y="370" type="line"/>
			<point x="353" y="593" type="line"/>
			<point x="276" y="670" type="line"/>
			<point x="60" y="422" type="line"/>
			<point x="60" y="318" type="line"/>
		</contour>
		<contour>
			<point x="579" y="65" type="line"/>
			<point x="795" y="318" type="line"/>
			<point x="795" y="422" type="line"/>
			<point x="579" y="670" type="line"/>
			<point x="502" y="593" type="line"/>
			<point x="723" y="370" type="line"/>
			<point x="663" y="453" type="line"/>
			<point x="663" y="394" type="line"/>
			<point x="762" y="422" type="line"/>
			<point x="192" y="422" type="line"/>
			<point x="192" y="318" type="line"/>
			<point x="762" y="318" type="line"/>
			<point x="663" y="341" type="line"/>
			<point x="663" y="291" type="line"/>
			<point x="724" y="370" type="line"/>
			<point x="502" y="143" type="line"/>
		</contour>
	</outline>
</glyph>
<glyph name="upDownArrow" format="2">
	<advance width="855"/>
	<unicode hex="2195"/>
	<outline>
		<contour>
			<point x="125" y="217" type="line"/>
			<point x="377" y="0" type="line"/>
			<point x="481" y="0" type="line"/>
			<point x="730" y="217" type="line"/>
			<point x="652" y="294" type="line"/>
			<point x="429" y="82" type="line"/>
			<point x="513" y="132" type="line"/>
			<point x="453" y="132" type="line"/>
			<point x="488" y="34" type="line"/>
			<point x="488" y="603" type="line"/>
			<point x="371" y="603" type="line"/>
			<point x="371" y="34" type="line"/>
			<point x="400" y="132" type="line"/>
			<point x="350" y="132" type="line"/>
			<point x="429" y="81" type="line"/>
			<point x="203" y="294" type="line"/>
		</contour>
		<contour>
			<point x="125" y="519" type="line"/>
			<point x="203" y="442" type="line"/>
			<point x="429" y="654" type="line"/>
			<point x="350" y="603" type="line"/>
			<point x="400" y="603" type="line"/>
			<point x="377" y="702" type="line"/>
			<point x="377" y="132" type="line"/>
			<point x="482" y="132" type="line"/>
			<point x="482" y="702" type="line"/>
			<point x="453" y="603" type="line"/>
			<point x="513" y="603" type="line"/>
			<point x="429" y="653" type="line"/>
			<point x="652" y="442" type="line"/>
			<point x="730" y="519" type="line"/>
			<point x="481" y="736" type="line"/>
			<point x="377" y="736" type="line"/>
		</contour>
	</outline>
</glyph>
<glyph name="northEastArrow" format="2">
	<advance width="856"/>
	<unicode hex="2197"/>
	<outline>
		<contour>
			<point x="700" y="171" type="line"/>
			<point x="725" y="658" type="line"/>
			<point x="634" y="751" type="line"/>
			<point x="148" y="744" type="line"/>
			<point x="146" y="625" type="line"/>
			<point x="625" y="652" type="line"/>
			<point x="487" y="665" type="line"/>
			<point x="539" y="611" type="line"/>
			<point x="604" y="724" type="line"/>
			<point x="90" y="228" type="line"/>
			<point x="183" y="130" type="line"/>
			<point x="695" y="624" type="line"/>
			<point x="585" y="563" type="line"/>
			<point x="629" y="518" type="line"/>
			<point x="625" y="652" type="line"/>
			<point x="581" y="174" type="line"/>
		</contour>
	</outline>
</glyph>
<glyph name="southEastArrow" format="2">
	<advance width="856"/>
	<unicode hex="2198"/>
	<outline>
		<contour>
			<point x="133" y="25" type="line"/>
			<point x="619" y="-4" type="line"/>
			<point x="713" y="86" type="line"/>
			<point x="710" y="573" type="line"/>
			<point x="591" y="575" type="line"/>
			<point x="610" y="99" type="line"/>
			<point x="628" y="234" type="line"/>
			<point x="573" y="182" type="line"/>
			<point x="684" y="116" type="line"/>
			<point x="193" y="634" type="line"/>
			<point x="98" y="545" type="line"/>
			<point x="590" y="27" type="line"/>
			<point x="525" y="137" type="line"/>
			<point x="480" y="93" type="line"/>
			<point x="611" y="98" type="line"/>
			<point x="136" y="144" type="line"/>
		</contour>
	</outline>
</glyph>
<glyph name="southWestArrow" format="2">
	<advance width="856"/>
	<unicode hex="2199"/>
	<outline>
		<contour>
			<point x="152" y="582" type="line"/>
			<point x="128" y="96" type="line"/>
			<point x="218" y="2" type="line"/>
			<point x="705" y="9" type="line"/>
			<point x="706" y="129" type="line"/>
			<point x="228" y="102" type="line"/>
			<point x="365" y="89" type="line"/>
			<point x="313" y="143" type="line"/>
			<point x="248" y="30" type="line"/>
			<point x="762" y="526" type="line"/>
			<point x="671" y="624" type="line"/>
			<point x="157" y="131" type="line"/>
			<point x="267" y="190" type="line"/>
			<point x="224" y="235" type="line"/>
			<point x="231" y="105" type="line"/>
			<point x="271" y="579" type="line"/>
		</contour>
	</outline>
</glyph>
<glyph name="Banca" format="2">
	<advance width="832"/>
	<outline>
		<contour>
			<point x="84" y="341" type="line"/>
			<point x="84" y="227" type="line"/>
			<point x="748" y="227" type="line"/>
			<point x="748" y="341" type="line"/>
		</contour>
		<contour>
			<point x="160" y="510" type="line"/>
			<point x="160" y="396" type="line"/>
			<point x="673" y="396" type="line"/>
			<point x="673" y="510" type="line"/>
		</contour>
		<contour>
			<point x="160" y="679" type="line"/>
			<point x="160" y="565" type="line"/>
			<point x="673" y="565" type="line"/>
			<point x="673" y="679" type="line"/>
		</contour>
		<contour>
			<point x="280" y="236" type="line"/>
			<point x="160" y="236" type="line"/>
			<point x="160" y="0" type="line"/>
			<point x="280" y="0" type="line"/>
		</contour>
		<contour>
			<point x="673" y="236" type="line"/>
			<point x="553" y="236" type="line"/>
			<point x="553" y="0" type="line"/>
			<point x="673" y="0" type="line"/>
		</contour>
		<contour>
			<point x="280" y="756" type="line"/>
			<point x="160" y="756" type="line"/>
			<point x="160" y="604" type="line"/>
			<point x="280" y="604" type="line"/>
		</contour>
		<contour>
			<point x="673" y="756" type="line"/>
			<point x="553" y="756" type="line"/>
			<point x="553" y="604" type="line"/>
			<point x="673" y="604" type="line"/>
		</contour>
	</outline>
</glyph>
<glyph name="Disc" format="2">
	<advance width="832"/>
	<outline>
		<contour>
			<point x="792" y="160" type="line"/>
			<point x="710" y="160" type="line"/>
			<point x="650" y="340" type="line"/>
			<point x="454" y="339" type="line" smooth="yes"/>
			<point x="424" y="339"/>
			<point x="408" y="355"/>
			<point x="408" y="385" type="curve" smooth="yes"/>
			<point x="408" y="583" type="line"/>
			<point x="288" y="583" type="line"/>
			<point x="288" y="350" type="line" smooth="yes"/>
			<point x="288" y="275"/>
			<point x="330" y="233"/>
			<point x="405" y="234" type="curve" smooth="yes"/>
			<point x="570" y="236" type="line"/>
			<point x="630" y="56" type="line"/>
			<point x="792" y="56" type="line"/>
		</contour>
		<contour>
			<point x="324" y="413" type="line"/>
			<point x="510" y="413" type="line"/>
			<point x="510" y="517" type="line"/>
			<point x="324" y="517" type="line"/>
		</contour>
		<contour>
			<point x="287" y="756" type="line"/>
			<point x="287" y="630" type="line"/>
			<point x="413" y="630" type="line"/>
			<point x="413" y="756" type="line"/>
		</contour>
		<contour>
			<point x="371" y="441" type="move"/>
		</contour>
		<contour>
			<point x="572" y="54" type="curve"/>
			<point x="528" y="181" type="line"/>
			<point x="498" y="138"/>
			<point x="447" y="113"/>
			<point x="384" y="113" type="curve"/>
			<point x="280" y="113"/>
			<point x="211" y="182"/>
			<point x="211" y="287" type="curve"/>
			<point x="211" y="321"/>
			<point x="218" y="351"/>
			<point x="232" y="377" type="curve"/>
			<point x="232" y="544" type="line"/>
			<point x="145" y="491"/>
			<point x="86" y="395"/>
			<point x="86" y="287" type="curve"/>
			<point x="86" y="122"/>
			<point x="220" y="-13"/>
			<point x="384" y="-13" type="curve"/>
			<point x="455" y="-13"/>
			<point x="520" y="12"/>
		</contour>
	</outline>
</glyph>
